<svg xmlns="http://www.w3.org/2000/svg" viewBox="0 0 163.55 163.55"><rect x="1.5" y="1.5" width="160.55" height="160.55" style="fill:#e3000b"/><path d="M1038.64,460.76V618.3H881.09V460.76h157.55m3-3H878.09V621.3h163.55V457.76Z" transform="translate(-878.09 -457.76)"/><path d="M1002.64,496.13c-10.9-15.7-32.6-20.3-48.2-10.4l-27.5,17.6a31.25,31.25,0,0,0-14.2,21.1,32.74,32.74,0,0,0,3.3,21.3,30.19,30.19,0,0,0-4.7,11.8,33.65,33.65,0,0,0,5.7,25.4c11,15.7,32.6,20.3,48.2,10.4l27.5-17.5a31.25,31.25,0,0,0,14.2-21.1,32.74,32.74,0,0,0-3.3-21.3,30.19,30.19,0,0,0,4.7-11.8,33,33,0,0,0-5.7-25.5" transform="translate(-878.09 -457.76)" style="stroke:#ffed00;stroke-miterlimit:10;stroke-width:12px"/><path d="M1002.64,496.13c-10.9-15.7-32.6-20.3-48.2-10.4l-27.5,17.6a31.25,31.25,0,0,0-14.2,21.1,32.74,32.74,0,0,0,3.3,21.3,30.19,30.19,0,0,0-4.7,11.8,33.65,33.65,0,0,0,5.7,25.4c11,15.7,32.6,20.3,48.2,10.4l27.5-17.5a31.25,31.25,0,0,0,14.2-21.1,32.74,32.74,0,0,0-3.3-21.3,30.19,30.19,0,0,0,4.7-11.8,33,33,0,0,0-5.7-25.5" transform="translate(-878.09 -457.76)" style="stroke:#ffed00;stroke-miterlimit:10;stroke-width:0.25px"/><path d="M951.74,584.43a21.8,21.8,0,0,1-23.4-8.7,20.25,20.25,0,0,1-3.5-15.3c.2-.9.4-1.7.6-2.6l.5-1.6,1.4,1a36.48,36.48,0,0,0,10.8,5.4l1,.3-.1,1a6.69,6.69,0,0,0,1.1,4.1,6.62,6.62,0,0,0,7.1,2.7,8.65,8.65,0,0,0,1.7-.7l27.4-17.5a5.67,5.67,0,0,0,2.6-3.8,6.21,6.21,0,0,0-1-4.6,6.56,6.56,0,0,0-7.1-2.6,8.65,8.65,0,0,0-1.7.7l-10.5,6.7a18.6,18.6,0,0,1-5.6,2.4,21.8,21.8,0,0,1-23.4-8.7,20.2,20.2,0,0,1-3.4-15.3,18.94,18.94,0,0,1,8.6-12.7l27.5-17.5a21.17,21.17,0,0,1,29,6.2,20.25,20.25,0,0,1,3.5,15.3,25,25,0,0,1-.7,2.6l-.5,1.6-1.4-1a36.48,36.48,0,0,0-10.8-5.4l-1-.3.1-1a6.69,6.69,0,0,0-1.1-4.1,6.56,6.56,0,0,0-7.1-2.6,8.65,8.65,0,0,0-1.7.7l-27.4,17.5a5.67,5.67,0,0,0-2.6,3.8,6.21,6.21,0,0,0,1,4.6,6.56,6.56,0,0,0,7.1,2.6,8.65,8.65,0,0,0,1.7-.7l10.5-6.7a21.17,21.17,0,0,1,29,6.2,20.25,20.25,0,0,1,3.5,15.3,18.94,18.94,0,0,1-8.6,12.7l-27.5,17.5a21.76,21.76,0,0,1-5.6,2.5" transform="translate(-878.09 -457.76)" style="fill:#fff"/></svg>